<svg width="3352" height="984" xmlns="http://www.w3.org/2000/svg" xmlns:xlink="http://www.w3.org/1999/xlink" xml:space="preserve" overflow="hidden"><g transform="translate(-302 -9356)"><g><g><g><path d="M705.029 464.102 1060.59 464.102 1060.59 802.921 705.029 802.921Z" stroke="#1C334E" stroke-width="13.9484" stroke-linejoin="round" stroke-miterlimit="10" fill="none" transform="matrix(1 0 0 1.00003 1197.47 9154.59)"/><text font-family="Malgun Gothic,Malgun Gothic_MSFontService,sans-serif" font-weight="400" font-size="527" transform="matrix(0.507215 0 0 0.507228 1992.74 9798)">...</text><text fill="#FFFFFF" font-family="Arial,Arial_MSFontService,sans-serif" font-weight="400" font-size="303" transform="matrix(0.507215 0 0 0.507228 2058.99 10006)">.</text><path d="M1159.49 590.652 1205.65 590.652 1205.65 547.792 1251.81 633.511 1205.65 719.231 1205.65 676.371 1159.49 676.371Z" fill="#4F81BD" fill-rule="evenodd" transform="matrix(1 0 0 1.00003 1197.47 9154.59)"/><path d="M1429.84 640.105C1429.84 618.254 1447.55 600.542 1469.4 600.542 1491.25 600.542 1508.96 618.254 1508.96 640.105 1508.96 661.956 1491.25 679.668 1469.4 679.668 1447.55 679.668 1429.84 661.956 1429.84 640.105Z" fill="#31859C" fill-rule="evenodd" transform="matrix(1 0 0 1.00003 1197.47 9154.59)"/><path d="M1489.18 640.105C1489.18 618.254 1506.89 600.542 1528.75 600.542 1550.6 600.542 1568.31 618.254 1568.31 640.105 1568.31 661.956 1550.6 679.668 1528.75 679.668 1506.89 679.668 1489.18 661.956 1489.18 640.105Z" fill="#31859C" fill-rule="evenodd" transform="matrix(1 0 0 1.00003 1197.47 9154.59)"/><path d="M1548.53 640.105C1548.53 618.254 1566.24 600.542 1588.09 600.542 1609.94 600.542 1627.65 618.254 1627.65 640.105 1627.65 661.956 1609.94 679.668 1588.09 679.668 1566.24 679.668 1548.53 661.956 1548.53 640.105Z" fill="#31859C" fill-rule="evenodd" transform="matrix(1 0 0 1.00003 1197.47 9154.59)"/><path d="M1350.71 464.102 1706.78 464.102 1706.78 802.921 1350.71 802.921Z" stroke="#1C334E" stroke-width="13.9484" stroke-linejoin="round" stroke-miterlimit="10" fill="none" transform="matrix(1 0 0 1.00003 1197.47 9154.59)"/><path d="M1429.84 640.105 1429.84 899.119" stroke="#000000" stroke-width="6.9742" stroke-linejoin="round" stroke-miterlimit="10" stroke-dasharray="27.8968 20.9226" fill="none" fill-rule="evenodd" transform="matrix(1 0 0 1.00003 1197.47 9154.59)"/><path d="M1508.96 640.105 1508.96 899.119" stroke="#000000" stroke-width="6.9742" stroke-linejoin="round" stroke-miterlimit="10" stroke-dasharray="27.8968 20.9226" fill="none" fill-rule="evenodd" transform="matrix(1 0 0 1.00003 1197.47 9154.59)"/><path d="M1447.28 895.807 1491.49 895.807 1491.49 902.781 1447.28 902.781ZM1450.76 909.756 1429.84 899.292 1450.76 888.833ZM1488 888.833 1508.92 899.292 1488 909.756Z" transform="matrix(1 0 0 1.00003 1197.47 9154.59)"/><text font-family="Arial,Arial_MSFontService,sans-serif" font-weight="400" font-size="147" transform="matrix(0.507215 0 0 0.507228 2472.79 10140)">Beam width</text><text font-family="Arial,Arial_MSFontService,sans-serif" font-weight="400" font-size="147" transform="matrix(0.507215 0 0 0.507228 1897.82 9489)">Input</text><text font-family="Arial,Arial_MSFontService,sans-serif" font-weight="400" font-size="147" transform="matrix(0.507215 0 0 0.507228 1897.82 9578)">Point </text><text font-family="Arial,Arial_MSFontService,sans-serif" font-weight="400" font-size="147" transform="matrix(0.507215 0 0 0.507228 2089.04 9578)">(</text><text font-family="Arial,Arial_MSFontService,sans-serif" font-weight="400" font-size="147" transform="matrix(0.507215 0 0 0.507228 2113.89 9578)">x</text><text font-family="Arial,Arial_MSFontService,sans-serif" font-weight="400" font-size="147" transform="matrix(0.507215 0 0 0.507228 2150.92 9578)">, </text><text font-family="Arial,Arial_MSFontService,sans-serif" font-weight="400" font-size="147" transform="matrix(0.507215 0 0 0.507228 2192.51 9578)">y</text><text font-family="Arial,Arial_MSFontService,sans-serif" font-weight="400" font-size="147" transform="matrix(0.507215 0 0 0.507228 2228.53 9578)">)</text><text font-family="Arial,Arial_MSFontService,sans-serif" font-weight="400" font-size="147" transform="matrix(0.507215 0 0 0.507228 2493.32 9545)">Measurement</text></g></g></g><g><g><g><path d="M2065.32 607.391C2065.32 570.461 2095.25 540.527 2132.18 540.527 2169.11 540.527 2199.05 570.461 2199.05 607.391 2199.05 644.321 2169.11 674.256 2132.18 674.256 2095.25 674.256 2065.32 644.321 2065.32 607.391Z" fill="#31859C" fill-rule="evenodd" transform="matrix(1 0 0 1.00181 1056.16 9228)"/><path d="M2473.4 526.032 2400.57 597.969 2468.75 688.751 2495.1 632.229 2533.84 609.958 2490.45 550.009 2473.4 526.032Z" fill="#31859C" fill-rule="evenodd" transform="matrix(1 0 0 1.00181 1056.16 9228)"/><path d="M2065.9 536.37 2132.3 602.767 2198.7 536.37 2203.38 541.05 2136.97 607.447 2203.38 673.844 2198.7 678.525 2132.3 612.128 2065.9 678.525 2061.22 673.844 2127.62 607.447 2061.22 541.05Z" fill-rule="evenodd" transform="matrix(1 0 0 1.00181 1056.16 9228)"/><path d="M2265.91 566.478 2308.46 566.478 2308.46 526.967 2351.01 605.988 2308.46 685.01 2308.46 645.499 2265.91 645.499Z" fill="#4F81BD" fill-rule="evenodd" transform="matrix(1 0 0 1.00181 1056.16 9228)"/><text font-family="Arial,Arial_MSFontService,sans-serif" font-weight="400" font-size="147" transform="matrix(0.467584 0 0 0.468429 3155.29 9687)">Beam shape</text></g></g></g><rect x="372.5" y="9358.5" width="1391" height="909" stroke="#000000" stroke-width="4.58333" stroke-linejoin="round" stroke-miterlimit="10" fill="none"/><g><g><g><path d="M857.508 229.184 857.508 614.492" stroke="#000000" stroke-width="1.24237" stroke-linejoin="round" stroke-miterlimit="10" fill="none" fill-rule="evenodd" transform="matrix(1 0 0 1.00049 140.746 9404.14)"/><path d="M455.521 229.184 455.521 614.492" stroke="#000000" stroke-width="1.24237" stroke-linejoin="round" stroke-miterlimit="10" fill="none" fill-rule="evenodd" transform="matrix(1 0 0 1.00049 140.746 9404.14)"/><path d="M589.427 229.184 589.427 614.492" stroke="#000000" stroke-width="1.24237" stroke-linejoin="round" stroke-miterlimit="10" fill="none" fill-rule="evenodd" transform="matrix(1 0 0 1.00049 140.746 9404.14)"/><path d="M723.332 229.184 723.332 614.492" stroke="#000000" stroke-width="1.24237" stroke-linejoin="round" stroke-miterlimit="10" fill="none" fill-rule="evenodd" transform="matrix(1 0 0 1.00049 140.746 9404.14)"/><path d="M991.413 229.184 991.413 614.492" stroke="#000000" stroke-width="1.24237" stroke-linejoin="round" stroke-miterlimit="10" fill="none" fill-rule="evenodd" transform="matrix(1 0 0 1.00049 140.746 9404.14)"/><path d="M1125.32 229.184 1125.32 614.492" stroke="#000000" stroke-width="1.24237" stroke-linejoin="round" stroke-miterlimit="10" fill="none" fill-rule="evenodd" transform="matrix(1 0 0 1.00049 140.746 9404.14)"/><path d="M1259.22 229.184 1259.22 614.492" stroke="#000000" stroke-width="1.24237" stroke-linejoin="round" stroke-miterlimit="10" fill="none" fill-rule="evenodd" transform="matrix(1 0 0 1.00049 140.746 9404.14)"/><path d="M1393.13 229.184 1393.13 614.492" stroke="#000000" stroke-width="1.24237" stroke-linejoin="round" stroke-miterlimit="10" fill="none" fill-rule="evenodd" transform="matrix(1 0 0 1.00049 140.746 9404.14)"/><path d="M321.616 227.015 1527.03 227.015 1527.03 614.635 321.616 614.635Z" stroke="#1C334E" stroke-width="2.48475" stroke-linejoin="round" stroke-miterlimit="10" fill="none" transform="matrix(1 0 0 1.00049 140.746 9404.14)"/><path d="M320.532 353.873 1525.99 353.873" stroke="#000000" stroke-width="1.24237" stroke-linejoin="round" stroke-miterlimit="10" fill="none" fill-rule="evenodd" transform="matrix(1 0 0 1.00049 140.746 9404.14)"/><path d="M321.616 487.778 1527.07 487.778" stroke="#000000" stroke-width="1.24237" stroke-linejoin="round" stroke-miterlimit="10" fill="none" fill-rule="evenodd" transform="matrix(1 0 0 1.00049 140.746 9404.14)"/><path d="M301.422 226.88C301.422 215.203 310.888 205.737 322.565 205.737 334.242 205.737 343.708 215.203 343.708 226.88 343.708 238.557 334.242 248.023 322.565 248.023 310.888 248.023 301.422 238.557 301.422 226.88Z" fill-rule="evenodd" transform="matrix(1 0 0 1.00049 140.746 9404.14)"/><path d="M434.243 226.88C434.243 215.203 443.709 205.737 455.386 205.737 467.063 205.737 476.529 215.203 476.529 226.88 476.529 238.557 467.063 248.023 455.386 248.023 443.709 248.023 434.243 238.557 434.243 226.88Z" fill-rule="evenodd" transform="matrix(1 0 0 1.00049 140.746 9404.14)"/><path d="M568.148 226.88C568.148 215.203 577.614 205.737 589.291 205.737 600.969 205.737 610.434 215.203 610.434 226.88 610.434 238.557 600.969 248.023 589.291 248.023 577.614 248.023 568.148 238.557 568.148 226.88Z" fill-rule="evenodd" transform="matrix(1 0 0 1.00049 140.746 9404.14)"/><path d="M834.874 226.88C834.874 215.203 844.34 205.737 856.017 205.737 867.695 205.737 877.16 215.203 877.16 226.88 877.16 238.557 867.695 248.023 856.017 248.023 844.34 248.023 834.874 238.557 834.874 226.88Z" fill-rule="evenodd" transform="matrix(1 0 0 1.00049 140.746 9404.14)"/><path d="M834.874 353.737C834.874 342.06 844.34 332.594 856.017 332.594 867.695 332.594 877.16 342.06 877.16 353.737 877.16 365.415 867.695 374.88 856.017 374.88 844.34 374.88 834.874 365.415 834.874 353.737Z" fill-rule="evenodd" transform="matrix(1 0 0 1.00049 140.746 9404.14)"/><path d="M434.243 353.737C434.243 342.06 443.709 332.594 455.386 332.594 467.063 332.594 476.529 342.06 476.529 353.737 476.529 365.415 467.063 374.88 455.386 374.88 443.709 374.88 434.243 365.415 434.243 353.737Z" fill-rule="evenodd" transform="matrix(1 0 0 1.00049 140.746 9404.14)"/><path d="M434.243 487.642C434.243 475.965 443.709 466.5 455.386 466.5 467.063 466.5 476.529 475.965 476.529 487.642 476.529 499.32 467.063 508.785 455.386 508.785 443.709 508.785 434.243 499.32 434.243 487.642Z" fill-rule="evenodd" transform="matrix(1 0 0 1.00049 140.746 9404.14)"/><path d="M434.243 614.5C434.243 602.823 443.709 593.357 455.386 593.357 467.063 593.357 476.529 602.823 476.529 614.5 476.529 626.177 467.063 635.643 455.386 635.643 443.709 635.643 434.243 626.177 434.243 614.5Z" fill-rule="evenodd" transform="matrix(1 0 0 1.00049 140.746 9404.14)"/><path d="M299.254 614.5C299.254 602.823 308.719 593.357 320.397 593.357 332.074 593.357 341.539 602.823 341.539 614.5 341.539 626.177 332.074 635.643 320.397 635.643 308.719 635.643 299.254 626.177 299.254 614.5Z" fill-rule="evenodd" transform="matrix(1 0 0 1.00049 140.746 9404.14)"/><path d="M566.522 614.5C566.522 602.823 575.987 593.357 587.665 593.357 599.342 593.357 608.808 602.823 608.808 614.5 608.808 626.177 599.342 635.643 587.665 635.643 575.987 635.643 566.522 626.177 566.522 614.5Z" fill-rule="evenodd" transform="matrix(1 0 0 1.00049 140.746 9404.14)"/><path d="M834.874 487.642C834.874 475.965 844.34 466.5 856.017 466.5 867.695 466.5 877.16 475.965 877.16 487.642 877.16 499.32 867.695 508.785 856.017 508.785 844.34 508.785 834.874 499.32 834.874 487.642Z" fill-rule="evenodd" transform="matrix(1 0 0 1.00049 140.746 9404.14)"/><path d="M970.135 614.5C970.135 602.823 979.6 593.357 991.278 593.357 1002.96 593.357 1012.42 602.823 1012.42 614.5 1012.42 626.177 1002.96 635.643 991.278 635.643 979.6 635.643 970.135 626.177 970.135 614.5Z" fill-rule="evenodd" transform="matrix(1 0 0 1.00049 140.746 9404.14)"/><path d="M1104.04 487.642C1104.04 475.965 1113.51 466.5 1125.18 466.5 1136.86 466.5 1146.33 475.965 1146.33 487.642 1146.33 499.32 1136.86 508.785 1125.18 508.785 1113.51 508.785 1104.04 499.32 1104.04 487.642Z" fill-rule="evenodd" transform="matrix(1 0 0 1.00049 140.746 9404.14)"/><path d="M1102.68 354.55C1102.68 342.873 1112.15 333.408 1123.83 333.408 1135.5 333.408 1144.97 342.873 1144.97 354.55 1144.97 366.228 1135.5 375.693 1123.83 375.693 1112.15 375.693 1102.68 366.228 1102.68 354.55Z" fill-rule="evenodd" transform="matrix(1 0 0 1.00049 140.746 9404.14)"/><path d="M1102.14 225.796C1102.14 214.119 1111.61 204.653 1123.29 204.653 1134.96 204.653 1144.43 214.119 1144.43 225.796 1144.43 237.472 1134.96 246.938 1123.29 246.938 1111.61 246.938 1102.14 237.472 1102.14 225.796Z" fill-rule="evenodd" transform="matrix(1 0 0 1.00049 140.746 9404.14)"/><path d="M1371.85 353.195C1371.85 341.518 1381.32 332.052 1392.99 332.052 1404.67 332.052 1414.14 341.518 1414.14 353.195 1414.14 364.873 1404.67 374.338 1392.99 374.338 1381.32 374.338 1371.85 364.873 1371.85 353.195Z" fill-rule="evenodd" transform="matrix(1 0 0 1.00049 140.746 9404.14)"/><path d="M1371.85 487.1C1371.85 475.423 1381.32 465.957 1392.99 465.957 1404.67 465.957 1414.14 475.423 1414.14 487.1 1414.14 498.778 1404.67 508.243 1392.99 508.243 1381.32 508.243 1371.85 498.778 1371.85 487.1Z" fill-rule="evenodd" transform="matrix(1 0 0 1.00049 140.746 9404.14)"/><path d="M343.708 223.153 415.616 223.153 415.616 230.607 343.708 230.607ZM411.888 215.698 434.251 226.88 411.888 238.061Z" fill="#4F81BD" transform="matrix(1 0 0 1.00049 140.746 9404.14)"/><path d="M476.529 223.153 549.57 223.153 549.57 230.607 476.529 230.607ZM545.842 215.698 568.205 226.88 545.842 238.061Z" fill="#4F81BD" transform="matrix(1 0 0 1.00049 140.746 9404.14)"/><path d="M610.434 223.153 816.282 223.153 816.282 230.607 610.434 230.607ZM812.555 215.698 834.918 226.88 812.555 238.061Z" fill="#4F81BD" transform="matrix(1 0 0 1.00049 140.746 9404.14)"/><path d="M0.0193101-3.72706 206.354-2.65804 206.315 4.79611-0.0193101 3.72706ZM202.665-10.1315 224.97 1.16558 202.55 12.2309Z" fill="#4F81BD" transform="matrix(1 0 0 -1.00049 1017.91 9631.22)"/><path d="M0.565413-3.68399 620.181 91.4141 619.051 98.7822-0.565413 3.68399ZM617.628 83.4809 638.036 97.9253 614.237 105.585Z" fill="#4F81BD" transform="matrix(-1 0 0 1.00049 1249.08 9644.97)"/><path d="M476.532 350.01 816.176 350.151 816.174 357.605 476.526 357.464ZM812.455 342.697 834.812 353.886 812.444 365.06Z" fill="#4F81BD" transform="matrix(1 0 0 1.00049 140.746 9404.14)"/><path d="M877.174 350.01 1084.15 350.783 1084.12 358.237 877.146 357.464ZM1080.45 343.312 1102.77 354.578 1080.37 365.675Z" fill="#4F81BD" transform="matrix(1 0 0 1.00049 140.746 9404.14)"/><path d="M0.0226865-3.72704 208.134-2.46027 208.089 4.99382-0.0226865 3.72704ZM204.453-9.93706 226.747 1.38021 204.316 12.4252Z" fill="#4F81BD" transform="matrix(1 0 0 -1.00049 1285.72 9758.89)"/><path d="M0.426312-3.70267 889.469 98.6585 888.615 106.064-0.426312 3.70267ZM886.617 90.8267 907.554 104.493 884.059 113.043Z" fill="#4F81BD" transform="matrix(-1 0 0 1.00049 1518.6 9772.43)"/><path d="M476.529 483.915 816.176 483.915 816.176 491.37 476.529 491.37ZM812.449 476.461 834.812 487.642 812.449 498.824Z" fill="#4F81BD" transform="matrix(1 0 0 1.00049 140.746 9404.14)"/><path d="M877.16 483.915 1085.41 483.915 1085.41 491.37 877.16 491.37ZM1081.69 476.461 1104.05 487.642 1081.69 498.824Z" fill="#4F81BD" transform="matrix(1 0 0 1.00049 140.746 9404.14)"/><path d="M0.00891478-3.72712 206.848-3.23237 206.83 4.22183-0.00891478 3.72712ZM203.139-10.6955 225.475 0.539307 203.085 11.6671Z" fill="#4F81BD" transform="matrix(1 0 0 -1.00049 1287.07 9892.03)"/><path d="M0.346841-3.71093 1024.42 92.0031 1023.72 99.4248-0.346841 3.71093ZM1021.4 84.2345 1042.63 97.4482 1019.32 106.5Z" fill="#4F81BD" transform="matrix(-1 0 0 1.00049 1518.68 9906.4)"/><path d="M341.539 610.773 415.71 610.773 415.71 618.227 341.539 618.227ZM411.983 603.319 434.346 614.5 411.983 625.681Z" fill="#4F81BD" transform="matrix(1 0 0 1.00049 140.746 9404.14)"/><path d="M8.09668e-06-3.72712 71.427-3.72695 71.427 3.72728-8.09668e-06 3.72712ZM67.6999-11.1812 90.0626 0.000195649 67.6999 11.1815Z" fill="#4F81BD" transform="matrix(1 0 0 -1.00049 617.275 10018.9)"/><path d="M608.808 610.773 951.339 610.773 951.339 618.227 608.808 618.227ZM947.612 603.319 969.975 614.5 947.612 625.681Z" fill="#4F81BD" transform="matrix(1 0 0 1.00049 140.746 9404.14)"/></g></g></g><text font-family="Arial,Arial_MSFontService,sans-serif" font-weight="400" font-size="147" transform="matrix(1 0 0 1 390.573 10219)">(a)</text><rect x="1814.5" y="9358.5" width="1196" height="910" stroke="#000000" stroke-width="4.58333" stroke-linejoin="round" stroke-miterlimit="10" fill="none"/><rect x="3053.5" y="9358.5" width="598" height="910" stroke="#000000" stroke-width="4.58333" stroke-linejoin="round" stroke-miterlimit="10" fill="none"/><text font-family="Arial,Arial_MSFontService,sans-serif" font-weight="400" font-size="147" transform="matrix(1 0 0 1 1838.39 10217)">(b)</text><text font-family="Arial,Arial_MSFontService,sans-serif" font-weight="400" font-size="147" transform="matrix(1 0 0 1 3086 10215)">(c)</text></g></svg>