<svg width="1005" height="213" xmlns="http://www.w3.org/2000/svg" xmlns:xlink="http://www.w3.org/1999/xlink" xml:space="preserve" overflow="hidden"><defs><clipPath id="clip0"><rect x="81" y="966" width="1005" height="213"/></clipPath></defs><g clip-path="url(#clip0)" transform="translate(-81 -966)"><path d="M174.813 164.888 370.868 164.888 370.868 188.916 174.813 188.916Z" fill="#4F81BD" transform="matrix(1 0 0 1.00272 -93.8129 938.939)"/><text fill="#FFFFFF" font-family="Arial,Arial_MSFontService,sans-serif" font-weight="400" font-size="83" transform="matrix(0.174116 0 0 0.17459 148.306 1122)">Substrate</text><path d="M444.345 164.888 640.574 164.888 640.574 188.916 444.345 188.916Z" fill="#4F81BD" transform="matrix(1 0 0 1.00272 -93.8129 938.939)"/><text fill="#FFFFFF" font-family="Arial,Arial_MSFontService,sans-serif" font-weight="400" font-size="83" transform="matrix(0.174116 0 0 0.17459 417.945 1122)">Substrate</text><path d="M444.345 145.387 640.574 145.387 640.574 164.888 444.345 164.888Z" fill="#D99694" transform="matrix(1 0 0 1.00272 -93.8129 938.939)"/><text fill="#FFFFFF" font-family="Arial,Arial_MSFontService,sans-serif" font-weight="400" font-size="83" transform="matrix(0.174116 0 0 0.17459 391.211 1100)">Photo Resist </text><text fill="#FFFFFF" font-family="Arial,Arial_MSFontService,sans-serif" font-weight="400" font-size="83" transform="matrix(0.174116 0 0 0.17459 477.05 1100)">(</text><text fill="#FFFFFF" font-family="Arial,Arial_MSFontService,sans-serif" font-weight="400" font-size="83" transform="matrix(0.174116 0 0 0.17459 481.926 1100)">PR</text><text fill="#FFFFFF" font-family="Arial,Arial_MSFontService,sans-serif" font-weight="400" font-size="83" transform="matrix(0.174116 0 0 0.17459 501.949 1100)">)</text><text font-family="Arial,Arial_MSFontService,sans-serif" font-weight="400" font-size="92" transform="matrix(0.174116 0 0 0.17459 147.458 1156)">Cleaning</text><text font-family="Arial,Arial_MSFontService,sans-serif" font-weight="400" font-size="92" transform="matrix(0.174116 0 0 0.17459 389.616 1146)">PR</text><text font-family="Arial,Arial_MSFontService,sans-serif" font-weight="400" font-size="92" transform="matrix(0.174116 0 0 0.17459 416.251 1146)">Spin Coating</text><text font-family="Arial,Arial_MSFontService,sans-serif" font-weight="400" font-size="92" transform="matrix(0.174116 0 0 0.17459 408.718 1166)">and Baking</text><path d="M391.762 124.754 407.607 124.754 407.607 110.042 423.451 139.467 407.607 168.893 407.607 154.18 391.762 154.18Z" fill="#4F81BD" fill-rule="evenodd" transform="matrix(1 0 0 1.00272 -93.8129 938.939)"/><text font-family="Arial,Arial_MSFontService,sans-serif" font-weight="400" font-size="92" transform="matrix(0.174116 0 0 0.17459 646.037 1156)">Exposure Patterning</text><path d="M661.468 125.277 677.313 125.277 677.313 110.564 693.157 139.99 677.313 169.415 677.313 154.702 661.468 154.702Z" fill="#4F81BD" fill-rule="evenodd" transform="matrix(1 0 0 1.00272 -93.8129 938.939)"/><path d="M983.758 164.714 1179.81 164.714 1179.81 188.742 983.758 188.742Z" fill="#4F81BD" transform="matrix(1 0 0 1.00272 -93.8129 938.939)"/><text fill="#FFFFFF" font-family="Arial,Arial_MSFontService,sans-serif" font-weight="400" font-size="83" transform="matrix(0.174116 0 0 0.17459 957.255 1121)">Substrate</text><path d="M983.758 145.213 1071.51 145.213 1071.51 164.714 983.758 164.714Z" fill="#D99694" transform="matrix(1 0 0 1.00272 -93.8129 938.939)"/><text font-family="Arial,Arial_MSFontService,sans-serif" font-weight="400" font-size="92" transform="matrix(0.174116 0 0 0.17459 947.98 1156)">Developing</text><path d="M931.175 124.58 947.019 124.58 947.019 109.867 962.864 139.293 947.019 168.719 947.019 154.006 931.175 154.006Z" fill="#4F81BD" fill-rule="evenodd" transform="matrix(1 0 0 1.00272 -93.8129 938.939)"/><path d="M1092.06 145.213 1179.81 145.213 1179.81 164.714 1092.06 164.714Z" fill="#D99694" transform="matrix(1 0 0 1.00272 -93.8129 938.939)"/><text fill="#FFFFFF" font-family="Arial,Arial_MSFontService,sans-serif" font-weight="400" font-size="83" transform="matrix(0.174116 0 0 0.17459 1032.15 1100)">PR</text><path d="M801.98 31.5151 822.352 31.5151 822.352 145.91 801.98 145.91Z" fill="#B3A2C7" transform="matrix(1 0 0 1.00272 -93.8129 938.939)"/><path d="M813.961 31.5945 814.212 90.4885 810.622 90.5038 810.371 31.6098ZM817.795 88.6777 812.455 99.4739 807.023 88.7235Z" fill="#7030A0" transform="matrix(1 0 0 1.00272 -93.8129 938.939)"/><text font-family="Arial,Arial_MSFontService,sans-serif" font-weight="400" font-size="83" transform="matrix(0.174116 0 0 0.17459 731.92 984)">UV Laser</text><path d="M714.051 165.062 910.107 165.062 910.107 189.09 714.051 189.09Z" fill="#4F81BD" transform="matrix(1 0 0 1.00272 -93.8129 938.939)"/><text fill="#FFFFFF" font-family="Arial,Arial_MSFontService,sans-serif" font-weight="400" font-size="83" transform="matrix(0.174116 0 0 0.17459 687.503 1122)">Substrate</text><path d="M714.051 145.561 801.806 145.561 801.806 165.062 714.051 165.062Z" fill="#D99694" transform="matrix(1 0 0 1.00272 -93.8129 938.939)"/><path d="M822.352 145.561 910.107 145.561 910.107 165.062 822.352 165.062Z" fill="#D99694" transform="matrix(1 0 0 1.00272 -93.8129 938.939)"/><text fill="#FFFFFF" font-family="Arial,Arial_MSFontService,sans-serif" font-weight="400" font-size="83" transform="matrix(0.174116 0 0 0.17459 762.394 1100)">PR</text><path d="M801.632 145.561 822.352 145.561 822.352 165.062 801.632 165.062Z" fill="#953735" transform="matrix(1 0 0 1.00272 -93.8129 938.939)"/><path d="M0.411409-0.434713 23.7544 21.6569 22.9315 22.5263-0.411409 0.434713ZM24.4089 19.8042 26.2409 24.8342 21.1177 23.2818Z" transform="matrix(-1 0 0 1.00272 747.032 1070.84)"/><text font-family="Arial,Arial_MSFontService,sans-serif" font-weight="400" font-size="83" transform="matrix(0.174116 0 0 0.17459 744.008 1066)">Soluble</text></g></svg>